Coordinates
version=1
nRows=5
nColumns=40
inDegrees=yes

Units are S.I. units (second, meters, Newtons, ...)
Angles are in degrees.

endheader
time	pelvis_tilt	pelvis_list	pelvis_rotation	pelvis_tx	pelvis_ty	pelvis_tz	hip_flexion_r	hip_adduction_r	hip_rotation_r	knee_angle_r	knee_angle_r_beta	ankle_angle_r	subtalar_angle_r	mtp_angle_r	hip_flexion_l	hip_adduction_l	hip_rotation_l	knee_angle_l	knee_angle_l_beta	ankle_angle_l	subtalar_angle_l	mtp_angle_l	lumbar_extension	lumbar_bending	lumbar_rotation	arm_flex_r	arm_add_r	arm_rot_r	elbow_flex_r	pro_sup_r	wrist_flex_r	wrist_dev_r	arm_flex_l	arm_add_l	arm_rot_l	elbow_flex_l	pro_sup_l	wrist_flex_l	wrist_dev_l
     39.84342857	     -3.33889902	     -2.92338235	     -4.74053338	      1.07960674	      0.93072607	      0.41511322	     23.36568620	     -3.29351743	    -12.38406680	     15.23733945	     15.23733945	      2.61434155	      5.18052712	      6.46721364	      2.86368311	     -3.70469919	    -15.86988964	     13.52424871	     13.52424871	     14.82427011	     -4.69878393	     -7.21372359	     -9.79966194	      2.24563937	      0.21920380	    -11.64714738	    -11.68950744	     -4.24219408	     29.85220752	     46.25864671	      0.00000000	      0.00000000	     23.74365014	    -21.72755107	    -13.66459730	     62.10338519	     47.55802609	      0.00000000	      0.00000000
     39.85685714	     -3.31079521	     -2.83085053	     -4.76536420	      1.08105325	      0.92985559	      0.41682097	     22.91244316	     -3.15992665	    -12.60897696	     15.67342976	     15.67342976	      3.05240973	      4.68486306	      6.10130238	      2.23455074	     -3.64143711	    -15.89759805	     13.32925090	     13.32925090	     15.15302242	     -4.65658290	     -7.32568835	     -9.53402727	      2.25448826	      0.25207035	    -11.18786834	    -11.75401561	     -4.23835587	     30.03506786	     46.25412198	      0.00000000	      0.00000000	     23.19495623	    -21.20381205	    -13.58493327	     61.78511118	     47.54154592	      0.00000000	      0.00000000
     39.87028571	     -3.10951941	     -2.58001177	     -4.84923305	      1.08283479	      0.92913731	      0.41872200	     22.38355309	     -3.10732022	    -11.97467270	     16.28401552	     16.28401552	      2.49085469	      2.84353762	      2.45248297	      1.05875370	     -3.28237023	    -16.00304813	     12.42783497	     12.42783497	     15.15808835	     -4.46658418	     -7.61342226	     -9.38837308	      2.06086592	      0.00380855	    -10.54750289	    -11.94450017	     -3.96542568	     30.40860324	     46.21336921	      0.00000000	      0.00000000	     22.89970231	    -20.66262410	    -14.98099867	     60.19017374	     47.60443683	      0.00000000	      0.00000000
     39.88371429	     -2.95914625	     -2.50244651	     -4.85324563	      1.08462147	      0.92835186	      0.42058727	     22.05871085	     -3.06472041	    -11.80814626	     17.34651983	     17.34651983	      3.13053691	      1.94985954	      1.80495619	      0.20424818	     -3.21059743	    -16.02635938	     12.08854204	     12.08854204	     15.49536196	     -4.29087554	     -7.56855859	     -9.25884349	      2.10902159	     -0.05405891	     -9.90529145	    -12.14295784	     -4.02785471	     30.72428468	     46.20877008	      0.00000000	      0.00000000	     22.15247622	    -20.34299424	    -14.91573448	     59.64526223	     47.58208550	      0.00000000	      0.00000000
     39.89714286	     -2.82187869	     -2.35890039	     -4.83159350	      1.08647475	      0.92760391	      0.42252250	     21.80470555	     -3.05209294	    -11.21555268	     18.42211466	     18.42211466	      3.63662690	      0.51077904	      0.99128466	     -0.62134830	     -3.07465487	    -16.03041991	     11.76415645	     11.76415645	     15.84570400	     -4.11341691	     -7.28883812	     -9.07216377	      2.07491055	     -0.31503178	     -9.08242918	    -12.24918617	     -4.13979837	     31.21105731	     46.20075834	      0.00000000	      0.00000000	     21.30885712	    -20.00856507	    -15.01686360	     58.69095442	     47.56414773	      0.00000000	      0.00000000
